<?xml version="1.0" standalone="no"?>
<!DOCTYPE svg PUBLIC "-//W3C//DTD SVG 20010904//EN"
 "http://www.w3.org/TR/2001/REC-SVG-20010904/DTD/svg10.dtd">
<svg version="1.0" xmlns="http://www.w3.org/2000/svg"
 width="500.000000pt" height="500.000000pt" viewBox="0 0 500.000000 500.000000"
 preserveAspectRatio="xMidYMid meet">
<metadata>
Created by potrace 1.14, written by Peter Selinger 2001-2017
</metadata>
<g transform="translate(0.000000,500.000000) scale(0.100000,-0.100000)"
fill="#000000" stroke="none">
<path d="M2339 4516 c-2 -2 -56 -6 -119 -10 -63 -4 -128 -9 -145 -11 -16 -3
-70 -11 -120 -19 -49 -8 -101 -17 -115 -20 -14 -4 -36 -8 -50 -11 -46 -8 -185
-53 -241 -76 -335 -142 -627 -460 -772 -839 -81 -212 -121 -395 -145 -665 -9
-104 -9 -709 0 -800 50 -498 195 -812 527 -1142 224 -223 606 -453 855 -514
23 -5 50 -12 61 -15 349 -88 669 -13 1063 249 69 45 248 178 296 217 11 10 59
48 106 86 410 327 679 639 853 989 225 453 214 806 -43 1370 -168 370 -393
715 -576 885 -114 106 -261 192 -414 243 -70 23 -238 59 -340 72 -48 7 -675
16 -681 11z"/>
</g>
</svg>
